# xmcd
#
# Track frame offsets: 
#        150
#        10807
#        24427
#        36340
#        47850
#        61151
#        79484
#        89403
#        101143
#        112111
#        125152
#        138316
#        150541
#        163172
#        174697
#        185873
#        195346
#        204129
#        216794
#        231589
#
# Disc length: 3223 seconds
#
# Revision: 0
# Processed by: cddbd v1.4PL0 Copyright (c) Steve Scherf et al.
# Submitted via: ExactAudioCopy v0.90b4
#
DISCID=230c9514
DTITLE=Jim Nesbitt - The Best of Jim Nesbitt
DYEAR=1999
DGENRE=Comedy
TTITLE0=Runnin' Bare
TTITLE1=Tiger In My Tank
TTITLE2=Looking For More In 64
TTITLE3=Truck Drivin' Cat With Nine Wives
TTITLE4=Shaving Cream
TTITLE5=Phone Call From The Devil
TTITLE6=Its Great To Stay In The USA
TTITLE7=I'm Yeller
TTITLE8=Stranded
TTITLE9=Please Mr. Kennedy
TTITLE10=Husband In Law
TTITLE11=You Better Watch Your Friends
TTITLE12=These Modern Things
TTITLE13=The Friendly Undertaker
TTITLE14=Clean The Slate In '68
TTITLE15=I Love Those Old Nasty Cigarettes
TTITLE16=Mother In Law
TTITLE17=I'm A Married Man
TTITLE18=The Horse Race
TTITLE19=Livin' Offa Credit
EXTD=
EXTT0=
EXTT1=
EXTT2=
EXTT3=
EXTT4=
EXTT5=
EXTT6=
EXTT7=
EXTT8=
EXTT9=
EXTT10=
EXTT11=
EXTT12=
EXTT13=
EXTT14=
EXTT15=
EXTT16=
EXTT17=
EXTT18=
EXTT19=
PLAYORDER=
